<?xml version="1.0" encoding="UTF-8" standalone="no"?>
<svg
   version="1.1"
   id="Layer_1"
   x="0px"
   y="0px"
   width="122.879px"
   height="103.609px"
   viewBox="0 0 122.879 103.609"
   enable-background="new 0 0 122.879 103.609"
   xml:space="preserve"
   sodipodi:docname="hamburger-menu-icon.svg"
   inkscape:version="1.3.2 (091e20e, 2023-11-25, custom)"
   xmlns:inkscape="http://www.inkscape.org/namespaces/inkscape"
   xmlns:sodipodi="http://sodipodi.sourceforge.net/DTD/sodipodi-0.dtd"
   xmlns="http://www.w3.org/2000/svg"
   xmlns:svg="http://www.w3.org/2000/svg"><defs
     id="defs1" /><sodipodi:namedview
     id="namedview1"
     pagecolor="#ffffff"
     bordercolor="#000000"
     borderopacity="0.25"
     inkscape:showpageshadow="2"
     inkscape:pageopacity="0.0"
     inkscape:pagecheckerboard="0"
     inkscape:deskcolor="#d1d1d1"
     inkscape:zoom="7.924022"
     inkscape:cx="61.39559"
     inkscape:cy="51.804501"
     inkscape:window-width="1920"
     inkscape:window-height="1017"
     inkscape:window-x="1912"
     inkscape:window-y="-8"
     inkscape:window-maximized="1"
     inkscape:current-layer="g1" /><g
     id="g1"><path
       fill-rule="evenodd"
       clip-rule="evenodd"
       d="M10.368,0h102.144c5.703,0,10.367,4.665,10.367,10.367v0 c0,5.702-4.664,10.368-10.367,10.368H10.368C4.666,20.735,0,16.07,0,10.368v0C0,4.665,4.666,0,10.368,0L10.368,0z M10.368,82.875 h102.144c5.703,0,10.367,4.665,10.367,10.367l0,0c0,5.702-4.664,10.367-10.367,10.367H10.368C4.666,103.609,0,98.944,0,93.242l0,0 C0,87.54,4.666,82.875,10.368,82.875L10.368,82.875z M10.368,41.438h102.144c5.703,0,10.367,4.665,10.367,10.367l0,0 c0,5.702-4.664,10.368-10.367,10.368H10.368C4.666,62.173,0,57.507,0,51.805l0,0C0,46.103,4.666,41.438,10.368,41.438 L10.368,41.438z"
       id="path1"
       style="fill:#ffffff" /></g></svg>
